<svg width="25" height="29" viewBox="0 0 25 29" fill="none" xmlns="http://www.w3.org/2000/svg">
<g id="&#240;&#159;&#166;&#134; icon &#34;Tik Tok&#34;">
<path id="Vector" d="M21.5266 6.06738C21.3351 5.9684 21.1487 5.85991 20.9681 5.74233C20.4428 5.39504 19.9612 4.9859 19.5337 4.52361C18.4639 3.29966 18.0644 2.05793 17.9173 1.18852H17.9232C17.8002 0.466886 17.8511 0 17.8587 0H12.9864V18.8404C12.9864 19.0933 12.9864 19.3433 12.9758 19.5904C12.9758 19.6211 12.9728 19.6495 12.9711 19.6826C12.9711 19.6962 12.9711 19.7103 12.9681 19.7245V19.7352C12.9168 20.4112 12.7 21.0642 12.3371 21.6368C11.9741 22.2094 11.476 22.6839 10.8866 23.0189C10.2722 23.3683 9.5774 23.5517 8.87058 23.5508C6.60051 23.5508 4.76071 21.6997 4.76071 19.4137C4.76071 17.1276 6.60051 15.2766 8.87058 15.2766C9.30033 15.2762 9.72738 15.3438 10.136 15.4769L10.1419 10.5159C8.90153 10.3557 7.64146 10.4543 6.44114 10.8055C5.24083 11.1566 4.12632 11.7527 3.1679 12.5561C2.32812 13.2858 1.62212 14.1564 1.0816 15.1288C0.875956 15.4834 0.0999144 16.9083 0.00598242 19.221C-0.0531506 20.5337 0.341048 21.8936 0.529038 22.4556V22.4675C0.647241 22.7984 1.10524 23.9278 1.85171 24.8799C2.45364 25.6437 3.16474 26.3146 3.96222 26.8711V26.8593L3.97407 26.8711C6.33278 28.4739 8.94806 28.3687 8.94806 28.3687C9.40076 28.3504 10.9173 28.3687 12.6395 27.5525C14.5497 26.6477 15.6372 25.2996 15.6372 25.2996C16.3319 24.4941 16.8843 23.5761 17.2707 22.585C17.7116 21.4261 17.8587 20.036 17.8587 19.4804V9.48518C17.9179 9.52067 18.7051 10.0413 18.7051 10.0413C18.7051 10.0413 19.8393 10.7683 21.6088 11.2417C22.8782 11.5786 24.5887 11.6495 24.5887 11.6495V6.81265C23.9893 6.87765 22.7725 6.68853 21.5266 6.06738Z" fill="#EAEAEA"/>
</g>
</svg>
