<svg width="31" height="27" viewBox="0 0 31 27" fill="none" xmlns="http://www.w3.org/2000/svg">
<g id="&#240;&#159;&#166;&#134; icon &#34;twitter outline&#34;">
<path id="Vector" d="M9.26211 26.8333H9.12796C6.42536 26.8096 3.76184 26.1853 1.33026 25.0054C0.882982 24.7953 0.514704 24.4476 0.27934 24.013C0.0439758 23.5785 -0.0461132 23.0801 0.0222609 22.5907C0.0966231 22.0979 0.324757 21.6413 0.674092 21.2859C1.02343 20.9306 1.4761 20.6947 1.96749 20.6119C3.47439 20.4108 4.92405 19.9029 6.22688 19.1194C3.96498 17.351 2.22364 15.0035 1.18742 12.3259C0.151194 9.64822 -0.141321 6.74011 0.340877 3.90972C0.406256 3.4614 0.599063 3.0413 0.896354 2.69942C1.19364 2.35753 1.5829 2.10826 2.0178 1.98126C2.44091 1.84838 2.89374 1.8427 3.32005 1.96493C3.74636 2.08716 4.12738 2.33191 4.4158 2.6688C5.39513 3.95296 6.62581 5.02414 8.03277 5.817C9.43972 6.60985 10.9935 7.10776 12.5992 7.28034C12.6759 5.30468 13.5249 3.43803 14.9637 2.08188C15.682 1.39396 16.5302 0.855897 17.4586 0.499042C18.387 0.142188 19.3772 -0.0263221 20.3714 0.00333238C21.3656 0.0329869 22.344 0.260213 23.2495 0.671769C24.155 1.08332 24.9695 1.67098 25.6457 2.40049C25.8218 2.55623 26.0407 2.65547 26.2739 2.68537C26.5071 2.71527 26.7439 2.67444 26.9537 2.56818C27.3535 2.37961 27.7987 2.30862 28.2374 2.36351C28.676 2.41839 29.09 2.59688 29.431 2.87816C29.7721 3.15943 30.0261 3.53189 30.1635 3.95207C30.3009 4.37226 30.3159 4.82285 30.2069 5.25126C29.8201 6.84453 29.0873 8.3331 28.0604 9.61126C27.8341 14.3817 25.7309 18.8692 22.2095 22.0953C18.6881 25.3214 14.0341 27.0245 9.26211 26.8333ZM9.26211 23.4794H9.39626C11.346 23.5465 13.2896 23.2258 15.1145 22.5361C16.9393 21.8464 18.6091 20.8012 20.027 19.4613C21.4449 18.1214 22.5828 16.5133 23.3745 14.7304C24.1663 12.9474 24.5963 11.025 24.6395 9.07465C24.6672 8.54013 24.8876 8.03375 25.26 7.64926C25.669 7.13151 26.0178 6.56892 26.2997 5.97234C25.6955 5.97349 25.098 5.84712 24.5461 5.6015C23.9941 5.35588 23.5003 4.99653 23.0967 4.54695C22.7087 4.16219 22.2478 3.85871 21.741 3.65427C21.2342 3.44983 20.6918 3.34854 20.1453 3.35634C19.5935 3.34207 19.0442 3.43694 18.5291 3.6355C18.014 3.83406 17.5432 4.13241 17.1437 4.51342C16.6047 5.02488 16.2094 5.66893 15.9976 6.38111C15.7857 7.0933 15.7645 7.84865 15.9363 8.57157L16.3723 10.4833L14.4103 10.6174C12.3998 10.7814 10.3777 10.5063 8.48404 9.81142C6.59038 9.1165 4.87039 8.01828 3.44319 6.5928C3.38198 8.8003 3.93419 10.9815 5.03843 12.894C6.14268 14.8064 7.75568 16.3751 9.69811 17.4257L11.2912 18.3313L10.2347 19.8405C9.09222 21.3389 7.5268 22.4604 5.74057 23.0602C6.88643 23.3474 8.06407 23.4883 9.24534 23.4794H9.26211Z" fill="#EAEAEA"/>
</g>
</svg>
