<svg width="28" height="28" viewBox="0 0 28 28" fill="none" xmlns="http://www.w3.org/2000/svg">
<g id="&#240;&#159;&#166;&#134; icon &#34;instagram fill&#34;">
<path id="Vector" fill-rule="evenodd" clip-rule="evenodd" d="M8.18496 0.0835596C9.67048 0.0154712 10.144 0 13.9266 0C17.7099 0 18.1827 0.0162435 19.6674 0.0835596C21.1506 0.150876 22.1634 0.386856 23.0493 0.731146C23.9784 1.08097 24.8201 1.62908 25.5158 2.33735C26.2242 3.03296 26.7724 3.87471 27.122 4.8039C27.4663 5.68979 27.7015 6.70257 27.7696 8.18496C27.8377 9.67048 27.8532 10.144 27.8532 13.9266C27.8532 17.7092 27.837 18.1827 27.7696 19.6683C27.7023 21.1506 27.4663 22.1634 27.122 23.0493C26.7662 23.9646 26.2895 24.7421 25.5158 25.5158C24.8202 26.2242 23.9784 26.7724 23.0493 27.122C22.1634 27.4663 21.1506 27.7015 19.6683 27.7696C18.1827 27.8377 17.7092 27.8532 13.9266 27.8532C10.144 27.8532 9.67048 27.837 8.18496 27.7696C6.70257 27.7023 5.68979 27.4663 4.8039 27.122C3.88861 26.7662 3.11105 26.2895 2.33735 25.5158C1.62896 24.8202 1.08081 23.9784 0.731146 23.0493C0.386856 22.1634 0.151648 21.1506 0.0835596 19.6683C0.0154712 18.1827 0 17.7099 0 13.9266C0 10.1432 0.0162435 9.67048 0.0835596 8.18575C0.150876 6.70257 0.386856 5.68979 0.731146 4.8039C1.08097 3.87477 1.62908 3.03306 2.33735 2.33735C3.03295 1.62896 3.8747 1.08081 4.8039 0.731146C5.68979 0.386856 6.70257 0.151648 8.18496 0.0835596ZM19.5545 2.59035C18.086 2.5238 17.645 2.5091 13.9266 2.5091C10.2082 2.5091 9.76719 2.5238 8.29871 2.59035C6.94086 2.65224 6.20353 2.87893 5.71299 3.07004C5.06309 3.32227 4.59887 3.624 4.11143 4.11143C3.62479 4.59887 3.32227 5.06309 3.07004 5.71299C2.87893 6.20353 2.65224 6.94086 2.59035 8.29871C2.5238 9.76719 2.5091 10.2082 2.5091 13.9266C2.5091 17.645 2.5238 18.086 2.59035 19.5545C2.65224 20.9123 2.87893 21.6497 3.07004 22.1402C3.29315 22.7452 3.64901 23.2924 4.11143 23.7418C4.56076 24.2042 5.10804 24.5601 5.71299 24.7831C6.20353 24.9743 6.94086 25.2009 8.29871 25.2628C9.76719 25.3294 10.2074 25.3441 13.9266 25.3441C17.6458 25.3441 18.086 25.3294 19.5545 25.2628C20.9123 25.2009 21.6497 24.9743 22.1402 24.7831C22.7901 24.5309 23.2544 24.2292 23.7418 23.7418C24.2042 23.2925 24.5601 22.7452 24.7831 22.1402C24.9743 21.6497 25.2009 20.9123 25.2628 19.5545C25.3294 18.086 25.3441 17.645 25.3441 13.9266C25.3441 10.2082 25.3294 9.76719 25.2628 8.29871C25.2009 6.94086 24.9743 6.20353 24.7831 5.71299C24.5309 5.06309 24.2292 4.59887 23.7418 4.11143C23.2544 3.62479 22.7901 3.32227 22.1402 3.07004C21.6497 2.87893 20.9123 2.65224 19.5545 2.59035ZM12.1484 18.2197C12.7122 18.4532 13.3164 18.5734 13.9266 18.5734C15.1591 18.5734 16.341 18.0838 17.2124 17.2124C18.0839 16.341 18.5735 15.159 18.5735 13.9266C18.5735 12.6942 18.0839 11.5122 17.2124 10.6408C16.341 9.76933 15.1591 9.27975 13.9266 9.27975C13.3164 9.27975 12.7122 9.39995 12.1484 9.63347C11.5845 9.86699 11.0723 10.2093 10.6408 10.6408C10.2093 11.0723 9.86703 11.5845 9.63351 12.1483C9.39998 12.7121 9.2798 13.3164 9.2798 13.9266C9.2798 14.5368 9.39998 15.1411 9.63351 15.7049C9.86703 16.2687 10.2093 16.7809 10.6408 17.2124C11.0723 17.6439 11.5845 17.9862 12.1484 18.2197ZM8.86497 8.86492C10.2074 7.52249 12.0281 6.76831 13.9266 6.76831C15.8252 6.76831 17.6459 7.52249 18.9883 8.86492C20.3307 10.2074 21.0849 12.0281 21.0849 13.9266C21.0849 15.825 20.3307 17.6458 18.9883 18.9883C17.6459 20.3307 15.8252 21.0849 13.9266 21.0849C12.0281 21.0849 10.2074 20.3307 8.86497 18.9883C7.52254 17.6458 6.76836 15.825 6.76836 13.9266C6.76836 12.0281 7.52254 10.2074 8.86497 8.86492ZM22.6721 7.83482C22.9894 7.51749 23.1677 7.08711 23.1677 6.63834C23.1677 6.18956 22.9894 5.75918 22.6721 5.44185C22.3547 5.12453 21.9244 4.94626 21.4756 4.94626C21.0269 4.94626 20.5964 5.12453 20.2791 5.44185C19.9617 5.75918 19.7835 6.18956 19.7835 6.63834C19.7835 7.08711 19.9617 7.51749 20.2791 7.83482C20.5964 8.15215 21.0269 8.33042 21.4756 8.33042C21.9244 8.33042 22.3547 8.15215 22.6721 7.83482Z" fill="#EAEAEA"/>
</g>
</svg>
