<svg width="24" height="24" viewBox="0 0 24 24" fill="none" xmlns="http://www.w3.org/2000/svg">
<g id="Group 3">
<path id="Vector" d="M0.00261379 13.867C-0.0354196 13.4088 0.346816 12.8479 0.809872 12.6588C2.51282 11.9628 4.23287 11.3147 5.98051 10.7289C7.54938 10.2028 9.13823 9.74196 10.7394 9.31963C12.1248 8.95423 13.5244 8.63565 14.9326 8.35563C15.988 8.14631 17.0501 7.96452 18.1122 7.78641C18.9147 7.65145 19.7182 7.52659 20.5273 7.43019C20.8981 7.38612 21.2671 7.32277 21.6369 7.26218C22.0582 7.19332 22.6277 7.53577 22.777 7.95901C23.1469 9.00197 23.5158 10.0449 23.8838 11.0879C24.0511 11.5616 23.9437 11.9858 23.5976 12.1768C23.376 12.2989 23.1155 12.2915 22.8711 12.3347C22.119 12.4678 21.3669 12.5972 20.6148 12.7258C18.4184 13.1022 16.2524 13.6026 14.093 14.1341C13.166 14.3618 12.2541 14.6464 11.3347 14.9044C10.2631 15.2056 9.20669 15.5535 8.15221 15.9061C6.90662 16.3229 5.67339 16.7709 4.45632 17.2593C3.60247 17.6027 2.75052 17.9507 1.90618 18.3161C1.45644 18.5107 0.938234 18.2261 0.826036 17.7643C0.630164 16.9545 0.463768 16.1383 0.285962 15.324C0.20324 14.9448 0.130976 14.5629 0.035893 14.1874C0.00641713 14.0717 0.0292371 13.9579 0.00356463 13.867H0.00261379Z" fill="white"/>
<path id="Vector_2" d="M3.24486 3.59345C3.2344 3.22254 3.58145 2.72126 4.12153 2.57161C5.43653 2.20805 6.76294 1.88396 8.09316 1.57639C9.00311 1.36615 9.92066 1.18161 10.8392 1.01085C11.7263 0.846506 12.6182 0.710627 13.5091 0.568322C14.3477 0.43428 15.1835 0.281876 16.0269 0.189148C16.6069 0.125799 17.1784 -0.00181659 17.7679 1.96037e-05C18.2642 0.0018558 18.656 0.295647 18.8119 0.691347C19.1228 1.47999 19.4176 2.27507 19.7162 3.0683C19.8331 3.37862 19.9672 3.68435 20.0489 4.00293C20.1764 4.49594 19.9862 4.91735 19.4271 5.0413C19.1352 5.10556 18.8328 5.12943 18.5362 5.17534C17.6738 5.30938 16.8123 5.44801 15.9528 5.59674C15.1369 5.73813 14.3221 5.87768 13.512 6.04202C12.8407 6.17882 12.1703 6.32204 11.5 6.46435C10.5197 6.67276 9.54604 6.90779 8.57523 7.15017C7.54833 7.40632 6.52999 7.69093 5.5164 7.99114C4.86508 8.18394 4.36874 7.8975 4.19189 7.24657C3.94753 6.34867 3.67654 5.45811 3.43503 4.56021C3.35801 4.2756 3.2401 3.99466 3.24581 3.59254L3.24486 3.59345Z" fill="white"/>
<path id="Vector_3" d="M23.9912 19.2773C23.9912 19.797 23.8571 19.9549 23.3484 20.0807C21.2813 20.592 19.2208 21.1218 17.1756 21.7112C15.3053 22.2501 13.455 22.846 11.6009 23.4308C11.1349 23.5777 10.6776 23.7521 10.2155 23.91C9.47669 24.1616 8.85769 23.8816 8.64471 23.1453C8.3471 22.117 8.02572 21.0952 7.7205 20.0696C7.58072 19.5987 7.62637 19.1598 8.01716 18.8027C8.13411 18.6962 8.27483 18.6273 8.43172 18.5768C9.47764 18.2362 10.5283 17.9075 11.5847 17.599C13.0756 17.1639 14.5741 16.7571 16.0793 16.3725C17.2307 16.0777 18.3898 15.8143 19.5451 15.5361C20.2344 15.3699 20.9304 15.2258 21.6274 15.0899C22.235 14.9724 22.7142 15.2762 22.9139 15.8693C23.2286 16.8049 23.549 17.7386 23.8647 18.6732C23.9351 18.8807 24.0283 19.0854 23.9912 19.2792V19.2773Z" fill="white"/>
</g>
</svg>
