<svg width="27" height="26" viewBox="0 0 27 26" fill="none" xmlns="http://www.w3.org/2000/svg">
<g id="&#240;&#159;&#166;&#134; icon &#34;web&#34;">
<path id="Vector" d="M13.5905 0C6.60275 0 0.935547 5.6672 0.935547 12.6549C0.935547 19.6426 6.60275 25.3098 13.5905 25.3098C20.5782 25.3098 26.2454 19.6426 26.2454 12.6549C26.2454 5.6672 20.5782 0 13.5905 0ZM14.6084 23.054C14.5533 23.054 14.4983 23.054 14.4158 23.0815V17.1116C15.8463 17.0841 17.1393 17.0566 18.3223 16.9741C17.2769 20.1928 15.3236 22.3387 14.6084 23.054ZM12.5726 23.054C11.8298 22.3112 9.90403 20.1653 8.85862 16.9741C10.0141 17.0566 11.3346 17.1116 12.7651 17.1116V23.0815C12.7101 23.0815 12.6551 23.054 12.5726 23.054ZM3.1364 12.6549C3.1364 11.9671 3.21893 11.2794 3.32898 10.6191C3.93421 10.5091 5.08966 10.344 6.71279 10.179C6.57524 10.9768 6.49271 11.8021 6.49271 12.6824C6.49271 13.5628 6.57524 14.3881 6.68528 15.1584C5.08966 14.9933 3.9067 14.8283 3.30147 14.7182C3.21893 14.0304 3.1364 13.3427 3.1364 12.6549ZM8.17086 12.6549C8.17086 11.7196 8.2809 10.8392 8.44596 10.0139C9.71146 9.93136 11.142 9.84882 12.7651 9.84882V15.461C11.1695 15.4335 9.71146 15.3785 8.41845 15.2684C8.2809 14.4706 8.17086 13.5903 8.17086 12.6549ZM14.5808 2.25588C15.3236 2.99866 17.2219 5.19952 18.2948 8.33574C17.1393 8.25321 15.8463 8.19818 14.4158 8.19818V2.22837C14.4708 2.22837 14.5258 2.25588 14.5808 2.25588ZM12.7651 2.22837V8.19818C11.3346 8.22569 10.0416 8.25321 8.88613 8.33574C9.93154 5.19952 11.8573 2.99866 12.5726 2.25588C12.6551 2.25588 12.7101 2.22837 12.7651 2.22837ZM14.4158 15.461V9.84882C16.0114 9.87634 17.4695 9.93136 18.735 10.0139C18.9 10.8392 19.0101 11.7196 19.0101 12.6549C19.0101 13.5903 18.9275 14.4706 18.7625 15.2959C17.497 15.3785 16.0389 15.4335 14.4158 15.461ZM20.4406 10.179C22.0638 10.344 23.2192 10.5091 23.8244 10.6191C23.962 11.2794 24.0445 11.9671 24.0445 12.6549C24.0445 13.3427 23.962 14.0304 23.8519 14.6907C23.2467 14.8007 22.0913 14.9658 20.4681 15.1309C20.6057 14.3331 20.6607 13.5077 20.6607 12.6274C20.6607 11.8021 20.5782 10.9493 20.4406 10.179ZM23.3292 8.85844C22.5589 8.7484 21.4585 8.61084 20.0555 8.47329C19.3952 6.10737 18.2398 4.20913 17.2769 2.86111C20.0555 3.90652 22.2563 6.10737 23.3292 8.85844ZM9.90403 2.86111C8.91365 4.18162 7.78571 6.07986 7.12545 8.44578C5.74992 8.55582 4.64949 8.72089 3.85168 8.83093C4.9246 6.10737 7.15296 3.90652 9.90403 2.86111ZM3.85168 16.4514C4.62198 16.5614 5.72241 16.699 7.09794 16.8365C7.7582 19.2025 8.85862 21.1007 9.84901 22.4212C7.09794 21.3483 4.9246 19.1749 3.85168 16.4514ZM17.3319 22.4212C18.3223 21.1007 19.4227 19.23 20.083 16.864C21.4585 16.754 22.5589 16.5889 23.3292 16.4789C22.2563 19.1749 20.083 21.3483 17.3319 22.4212Z" fill="#EAEAEA"/>
</g>
</svg>
