<svg width="33" height="33" viewBox="0 0 33 33" fill="none" xmlns="http://www.w3.org/2000/svg">
<g id="&#240;&#159;&#166;&#134; icon &#34;whatsapp&#34;">
<path id="Vector" d="M23.5223 19.4257C23.1212 19.2245 21.1478 18.2547 20.7804 18.1196C20.4117 17.9859 20.1442 17.9197 19.8755 18.3222C19.6094 18.7234 18.8395 19.627 18.6058 19.8944C18.3721 20.1632 18.1371 20.1956 17.736 19.9957C17.3348 19.7931 16.0408 19.3703 14.5078 18.0034C13.3151 16.9391 12.5088 15.6249 12.2751 15.2224C12.0414 14.8212 12.2508 14.6038 12.4507 14.4038C12.6317 14.2242 12.8532 13.9352 13.0531 13.7015C13.2544 13.4665 13.3205 13.299 13.4556 13.0302C13.5893 12.7628 13.5231 12.5291 13.4218 12.3278C13.3205 12.1266 12.5182 10.1505 12.1846 9.34685C11.8577 8.5648 11.5268 8.67151 11.281 8.658C11.0473 8.64719 10.7799 8.64449 10.5111 8.64449C10.2437 8.64449 9.80873 8.74444 9.44135 9.14695C9.07396 9.54811 8.03662 10.5193 8.03662 12.4953C8.03662 14.47 9.47511 16.3786 9.67502 16.6474C9.87627 16.9148 12.5061 20.9696 16.5325 22.7079C17.4901 23.1212 18.2371 23.3684 18.8206 23.5521C19.7823 23.8587 20.6575 23.8155 21.3477 23.7115C22.119 23.5967 23.7222 22.7403 24.0572 21.8029C24.3922 20.8656 24.3922 20.0619 24.2909 19.8944C24.1909 19.7269 23.9248 19.627 23.5223 19.4257ZM16.1989 29.4249H16.1935C13.8024 29.4251 11.4553 28.7822 9.39812 27.5637L8.91052 27.2746L3.85758 28.601L5.20557 23.6737L4.88816 23.1685C3.55157 21.0402 2.84448 18.5771 2.84861 16.0639C2.84996 8.70257 8.84029 2.7136 16.2043 2.7136C19.7701 2.7136 23.1225 4.10481 25.6429 6.62791C26.8865 7.86597 27.8721 9.33838 28.5429 10.9599C29.2136 12.5814 29.5561 14.3199 29.5505 16.0747C29.5464 23.4359 23.5574 29.4249 16.1989 29.4249ZM27.5622 4.71127C26.074 3.21325 24.3033 2.02547 22.3527 1.21676C20.4021 0.408051 18.3105 -0.00550576 16.1989 5.53481e-05C7.34507 5.53481e-05 0.139121 7.206 0.135069 16.0625C0.135069 18.8936 0.873899 21.6571 2.27997 24.0924L0 32.4167L8.51612 30.1826C10.8712 31.4657 13.5102 32.1381 16.1921 32.1385H16.1989C25.0513 32.1385 32.2586 24.9325 32.2627 16.0747C32.2692 13.9639 31.8571 11.8728 31.0503 9.92229C30.2435 7.9718 29.058 6.20064 27.5622 4.71127Z" fill="#333333"/>
</g>
</svg>
