<svg width="44" height="32" viewBox="0 0 44 32" fill="none" xmlns="http://www.w3.org/2000/svg">
<g id="&#240;&#159;&#166;&#134; icon &#34;game controller outline&#34;">
<path id="Vector" d="M40.5596 15.4395C38.9415 8.12492 36.5417 3.45899 32.6954 2.32197C31.9504 2.10465 31.178 1.99625 30.402 2.00012C28.0374 2.00012 26.1713 3.40711 21.96 3.40711C17.7487 3.40711 15.8792 2.00012 13.5181 2.00012C12.7097 1.99593 11.9047 2.10425 11.1262 2.32197C7.27457 3.45899 4.895 8.12932 3.25849 15.4395C1.58769 22.9062 1.89019 28.8059 5.15617 29.9386C7.44253 30.73 9.48706 29.0935 11.4234 26.6849C13.6219 23.9413 16.3294 23.0971 21.96 23.0971C27.5906 23.0971 30.1927 23.9413 32.3946 26.6849C34.3292 29.0952 36.4494 30.7115 38.6751 29.9526C42.2823 28.7206 42.2313 22.9942 40.5596 15.4395Z" stroke="#333333" stroke-width="2.81398" stroke-miterlimit="10"/>
<path id="Vector_2" d="M25.0214 14.5175C25.9928 14.5175 26.7802 13.7301 26.7802 12.7587C26.7802 11.7874 25.9928 11 25.0214 11C24.0501 11 23.2627 11.7874 23.2627 12.7587C23.2627 13.7301 24.0501 14.5175 25.0214 14.5175Z" fill="#333333"/>
<path id="Vector_3" d="M28.9949 18.884C28.6469 18.884 28.3067 18.7807 28.0174 18.5873C27.7281 18.3938 27.5026 18.1189 27.3697 17.7973C27.2367 17.4757 27.2021 17.1218 27.2703 16.7805C27.3385 16.4392 27.5065 16.1259 27.7529 15.8801C27.9993 15.6343 28.3131 15.4671 28.6545 15.3998C28.996 15.3324 29.3497 15.3679 29.671 15.5017C29.9923 15.6354 30.2667 15.8616 30.4594 16.1514C30.6521 16.4412 30.7545 16.7816 30.7537 17.1297C30.7525 17.5953 30.5667 18.0415 30.237 18.3704C29.9073 18.6993 29.4606 18.884 28.9949 18.884Z" fill="#333333"/>
<path id="Vector_4" d="M28.9949 11.1456C29.9663 11.1456 30.7537 10.3581 30.7537 9.38682C30.7537 8.4155 29.9663 7.62808 28.9949 7.62808C28.0236 7.62808 27.2362 8.4155 27.2362 9.38682C27.2362 10.3581 28.0236 11.1456 28.9949 11.1456Z" fill="#333333"/>
<path id="Vector_5" d="M32.8642 15.0148C33.8355 15.0148 34.6229 14.2274 34.6229 13.2561C34.6229 12.2847 33.8355 11.4973 32.8642 11.4973C31.8929 11.4973 31.1055 12.2847 31.1055 13.2561C31.1055 14.2274 31.8929 15.0148 32.8642 15.0148Z" fill="#333333"/>
<g id="Group">
<path id="Vector_6" d="M13.5181 9.03506V17.477" stroke="#333333" stroke-width="2.81398" stroke-linecap="round" stroke-linejoin="round"/>
<path id="Vector_7" d="M17.7391 13.256H9.29712" stroke="#333333" stroke-width="2.81398" stroke-linecap="round" stroke-linejoin="round"/>
</g>
</g>
</svg>
