<svg width="24" height="18" viewBox="0 0 24 18" fill="none" xmlns="http://www.w3.org/2000/svg">
<g id="Ver m&#195;&#161;s">
<path id="Vector" d="M23.9224 8.90727C23.9224 9.10976 23.8419 9.30395 23.6988 9.44712C23.5556 9.5903 23.3614 9.67074 23.1589 9.67075H0.763481C0.560993 9.67075 0.366799 9.59032 0.223618 9.44714C0.0804378 9.30396 0 9.10976 0 8.90727C0 8.70479 0.0804378 8.51059 0.223618 8.36741C0.366799 8.22423 0.560993 8.14379 0.763481 8.14379H23.1589C23.3614 8.1438 23.5556 8.22424 23.6988 8.36742C23.8419 8.5106 23.9224 8.70479 23.9224 8.90727ZM0.763481 1.52696H23.1589C23.3614 1.52696 23.5556 1.44652 23.6988 1.30334C23.842 1.16016 23.9224 0.965968 23.9224 0.76348C23.9224 0.560992 23.842 0.366799 23.6988 0.223618C23.5556 0.0804378 23.3614 0 23.1589 0H0.763481C0.560993 0 0.366799 0.0804378 0.223618 0.223618C0.0804378 0.366799 0 0.560992 0 0.76348C0 0.965968 0.0804378 1.16016 0.223618 1.30334C0.366799 1.44652 0.560993 1.52696 0.763481 1.52696ZM23.1589 16.2876H0.763481C0.560993 16.2876 0.366799 16.368 0.223618 16.5112C0.0804378 16.6544 0 16.8486 0 17.0511C0 17.2536 0.0804378 17.4477 0.223618 17.5909C0.366799 17.7341 0.560993 17.8145 0.763481 17.8145H23.1589C23.3614 17.8145 23.5556 17.7341 23.6988 17.5909C23.842 17.4477 23.9224 17.2536 23.9224 17.0511C23.9224 16.8486 23.842 16.6544 23.6988 16.5112C23.5556 16.368 23.3614 16.2876 23.1589 16.2876Z" fill="white"/>
</g>
</svg>
