<svg width="29" height="28" viewBox="0 0 29 28" fill="none" xmlns="http://www.w3.org/2000/svg">
<g id="&#240;&#159;&#166;&#134; icon &#34;nequi colombia&#34;">
<g id="Group">
<path id="Vector" d="M11.0567 1.77896L25.4084 7.51027C25.7874 7.66162 26.0966 7.94838 26.2761 8.31487C26.4555 8.68136 26.4924 9.10145 26.3795 9.4936L22.1992 24.0227C22.0962 24.3805 21.9154 24.711 21.6697 24.9907C21.424 25.2704 21.1195 25.4922 20.7779 25.6404C20.4364 25.7885 20.0663 25.8593 19.6942 25.8476C19.3222 25.8359 18.9573 25.7421 18.6257 25.5728L2.8294 17.5087C2.39532 17.2871 2.01474 16.9736 1.71413 16.59C1.41353 16.2063 1.20012 15.7618 1.08875 15.2873C0.977389 14.8128 0.970745 14.3198 1.06928 13.8424C1.16782 13.3651 1.36917 12.915 1.65933 12.5234L9.2373 2.2962C9.44097 2.02128 9.72992 1.82152 10.0591 1.72808C10.3882 1.63465 10.739 1.65279 11.0567 1.77968V1.77896Z" stroke="#EAEAEA" stroke-width="1.5" stroke-linecap="round" stroke-linejoin="round"/>
<path id="Vector_2" d="M3.63008 7.10125L15.1371 1.21262C15.5206 1.01637 15.9586 0.953595 16.3818 1.03422C16.805 1.11485 17.1892 1.33428 17.4737 1.6578L27.3601 12.9009C27.5933 13.1661 27.7192 13.5088 27.7132 13.862C27.7072 14.2151 27.5697 14.5533 27.3276 14.8105L16.5418 26.2666C16.3085 26.5144 16.0237 26.7082 15.7075 26.8342C15.3913 26.9603 15.0513 27.0156 14.7115 26.9962C14.3716 26.9769 14.0402 26.8834 13.7403 26.7223C13.4404 26.5612 13.1795 26.3364 12.9757 26.0637L2.48708 12.0233C2.19912 11.6378 1.99876 11.1941 1.9 10.7231C1.80123 10.2522 1.80643 9.76535 1.91524 9.29663C2.02405 8.82791 2.23384 8.38858 2.52998 8.00931C2.82611 7.63004 3.20174 7.32048 3.63008 7.10125Z" stroke="#EAEAEA" stroke-width="1.5" stroke-linecap="round" stroke-linejoin="round"/>
</g>
</g>
</svg>
