<svg width="29" height="29" viewBox="0 0 29 29" fill="none" xmlns="http://www.w3.org/2000/svg">
<g id="&#240;&#159;&#166;&#134; icon &#34;qrcode viewfinder&#34;">
<path id="Vector" d="M1.24103 9.74454C2.03779 9.74454 2.46676 9.30027 2.46676 8.48822V4.87227C2.46676 3.27888 3.32477 2.46683 4.85697 2.46683H8.56477C9.36152 2.46683 9.80586 2.02243 9.80586 1.22573C9.80586 0.444337 9.36152 0 8.56477 0H4.81095C1.62411 0 0 1.57816 0 4.7344V8.48822C0 9.30027 0.444336 9.74454 1.24103 9.74454ZM26.8895 9.74454C27.7014 9.74454 28.1307 9.30027 28.1307 8.48822V4.7344C28.1307 1.57816 26.5371 0 23.3196 0H19.5811C18.769 0 18.3247 0.444337 18.3247 1.22573C18.3247 2.02243 18.769 2.46683 19.5811 2.46683H23.2889C24.7905 2.46683 25.6638 3.27888 25.6638 4.87227V8.48822C25.6638 9.30027 26.1081 9.74454 26.8895 9.74454ZM13.4064 12.7323V7.38506C13.4064 7.01734 13.1153 6.71087 12.7323 6.71087H7.40035C7.01733 6.71087 6.72617 7.01734 6.72617 7.38506V12.7323C6.72617 13.1 7.01733 13.3911 7.40035 13.3911H12.7323C13.1153 13.3911 13.4064 13.1 13.4064 12.7323ZM16.0571 8.04388H20.0714V12.0581H16.0571V8.04388ZM18.9069 10.8937V9.22365H17.2369V10.8937H18.9069ZM10.909 10.8937V9.22365H9.22359V10.8937H10.909ZM8.05918 16.0571H12.0734V20.0714H8.05918V16.0571ZM21.2052 16.5781V14.908H19.5351V16.5781H21.2052ZM16.5933 16.5781V14.908H14.9233V16.5781H16.5933ZM10.909 18.8916V17.2215H9.22359V18.8916H10.909ZM18.9069 18.8916V17.2215H17.2215V18.8916H18.9069ZM19.5811 28.1152H23.3196C26.5371 28.1152 28.1307 26.5218 28.1307 23.3655V19.6271C28.1307 18.815 27.6863 18.3707 26.8895 18.3707C26.0928 18.3707 25.6638 18.815 25.6638 19.6271V23.243C25.6638 24.8364 24.7905 25.6485 23.2889 25.6485H19.5811C18.769 25.6485 18.3247 26.0928 18.3247 26.8895C18.3247 27.6709 18.769 28.1152 19.5811 28.1152ZM4.81095 28.1152H8.56477C9.36152 28.1152 9.80586 27.6709 9.80586 26.8895C9.80586 26.0928 9.36152 25.6485 8.56477 25.6485H4.85697C3.32477 25.6485 2.46676 24.8364 2.46676 23.243V19.6271C2.46676 18.815 2.02243 18.3707 1.24103 18.3707C0.428974 18.3707 0 18.815 0 19.6271V23.3655C0 26.5371 1.62411 28.1152 4.81095 28.1152ZM16.5933 21.2052V19.5351H14.9233V21.2052H16.5933ZM21.2052 21.2052V19.5351H19.5351V21.2052H21.2052ZM21.4044 12.7323V7.38506C21.4044 7.01734 21.1132 6.71087 20.7302 6.71087H15.3982C15.0152 6.71087 14.7241 7.01734 14.7241 7.38506V12.7323C14.7241 13.1 15.0152 13.3911 15.3982 13.3911H20.7302C21.1132 13.3911 21.4044 13.1 21.4044 12.7323ZM8.05918 8.04388H12.0734V12.0581H8.05918V8.04388ZM13.4064 20.7302V15.383C13.4064 15.0153 13.1153 14.7242 12.7323 14.7242H7.40035C7.01733 14.7242 6.72617 15.0153 6.72617 15.383V20.7302C6.72617 21.098 7.01733 21.4044 7.40035 21.4044H12.7323C13.1153 21.4044 13.4064 21.098 13.4064 20.7302Z" fill="#0D0D0D"/>
</g>
</svg>
